<svg width="206" height="48" viewBox="0 0 206 48" fill="none" xmlns="http://www.w3.org/2000/svg">
<path d="M4.4 34.56L3.73377 35.3058L3.73937 35.3107L4.4 34.56ZM4.4 18.88L5.06065 19.6307L5.06621 19.6258L4.4 18.88ZM26.16 16.2H27.16V15.2H26.16V16.2ZM26.16 20.8V21.8H27.16V20.8H26.16ZM8.76 22.24L8.043 21.5429L8.03796 21.5481L8.03299 21.5534L8.76 22.24ZM8.76 31.16L8.03299 31.8466L8.03796 31.8519L8.043 31.8571L8.76 31.16ZM26.56 32.6H27.56V31.6H26.56V32.6ZM26.56 37.2V38.2H27.56V37.2H26.56ZM12.76 36.2C9.34589 36.2 6.82358 35.3607 5.06063 33.8093L3.73937 35.3107C5.97642 37.2793 9.02744 38.2 12.76 38.2V36.2ZM5.06621 33.8142C3.33515 32.2678 2.4 29.9611 2.4 26.72H0.4C0.4 30.3589 1.46485 33.2788 3.73379 35.3058L5.06621 33.8142ZM2.4 26.72C2.4 23.4486 3.33701 21.1475 5.06063 19.6307L3.73937 18.1293C1.46299 20.1325 0.4 23.058 0.4 26.72H2.4ZM5.06621 19.6258C6.82924 18.0508 9.34941 17.2 12.76 17.2V15.2C9.02392 15.2 5.97076 16.1359 3.73379 18.1342L5.06621 19.6258ZM12.76 17.2H26.16V15.2H12.76V17.2ZM25.16 16.2V20.8H27.16V16.2H25.16ZM26.16 19.8H12.76V21.8H26.16V19.8ZM12.76 19.8C10.84 19.8 9.21576 20.3367 8.043 21.5429L9.477 22.9371C10.1709 22.2233 11.2133 21.8 12.76 21.8V19.8ZM8.03299 21.5534C6.87732 22.777 6.4 24.5706 6.4 26.72H8.4C8.4 24.8161 8.82934 23.623 9.48701 22.9266L8.03299 21.5534ZM6.4 26.72C6.4 28.8471 6.87927 30.625 8.03299 31.8466L9.48701 30.4734C8.8274 29.775 8.4 28.5929 8.4 26.72H6.4ZM8.043 31.8571C9.21576 33.0633 10.84 33.6 12.76 33.6V31.6C11.2133 31.6 10.1709 31.1767 9.477 30.4629L8.043 31.8571ZM12.76 33.6H26.56V31.6H12.76V33.6ZM25.56 32.6V37.2H27.56V32.6H25.56ZM26.56 36.2H12.76V38.2H26.56V36.2ZM31.7437 34.56L31.0775 35.3058L31.0831 35.3107L31.7437 34.56ZM31.7437 18.88L32.4044 19.6307L32.41 19.6258L31.7437 18.88ZM55.8638 18.88L55.1975 19.6258L55.2031 19.6307L55.8638 18.88ZM55.8638 34.56L56.5244 35.3107L56.53 35.3058L55.8638 34.56ZM51.4638 31.16L50.7468 30.4629L50.7417 30.4681L50.7367 30.4734L51.4638 31.16ZM51.4638 22.24L50.7367 22.9266L50.7417 22.9319L50.7468 22.9371L51.4638 22.24ZM36.1038 22.24L35.3868 21.5429L35.3817 21.5481L35.3767 21.5534L36.1038 22.24ZM36.1038 31.16L35.3767 31.8466L35.3817 31.8519L35.3868 31.8571L36.1038 31.16ZM40.1038 36.2C36.6896 36.2 34.1673 35.3607 32.4044 33.8093L31.0831 35.3107C33.3202 37.2793 36.3712 38.2 40.1038 38.2V36.2ZM32.41 33.8142C30.6789 32.2678 29.7437 29.9611 29.7437 26.72H27.7437C27.7437 30.3589 28.8086 33.2788 31.0775 35.3058L32.41 33.8142ZM29.7437 26.72C29.7437 23.4486 30.6808 21.1475 32.4044 19.6307L31.0831 18.1293C28.8067 20.1325 27.7437 23.058 27.7437 26.72H29.7437ZM32.41 19.6258C34.173 18.0508 36.6932 17.2 40.1038 17.2V15.2C36.3677 15.2 33.3145 16.1359 31.0775 18.1342L32.41 19.6258ZM40.1038 17.2H47.5037V15.2H40.1038V17.2ZM47.5037 17.2C50.9143 17.2 53.4345 18.0508 55.1975 19.6258L56.53 18.1342C54.293 16.1359 51.2398 15.2 47.5037 15.2V17.2ZM55.2031 19.6307C56.9267 21.1475 57.8638 23.4486 57.8638 26.72H59.8638C59.8638 23.058 58.8008 20.1325 56.5244 18.1293L55.2031 19.6307ZM57.8638 26.72C57.8638 29.9611 56.9286 32.2678 55.1975 33.8142L56.53 35.3058C58.7989 33.2788 59.8638 30.3589 59.8638 26.72H57.8638ZM55.2031 33.8093C53.4402 35.3607 50.9179 36.2 47.5037 36.2V38.2C51.2363 38.2 54.2873 37.2793 56.5244 35.3107L55.2031 33.8093ZM47.5037 36.2H40.1038V38.2H47.5037V36.2ZM40.1038 33.6H47.5037V31.6H40.1038V33.6ZM47.5037 33.6C49.422 33.6 51.0411 33.0639 52.1908 31.8466L50.7367 30.4734C50.0731 31.1761 49.0521 31.6 47.5037 31.6V33.6ZM52.1807 31.8571C53.368 30.6359 53.8638 28.8536 53.8638 26.72H51.8638C51.8638 28.5864 51.4262 29.7641 50.7468 30.4629L52.1807 31.8571ZM53.8638 26.72C53.8638 24.5641 53.37 22.7662 52.1807 21.5429L50.7468 22.9371C51.4241 23.6338 51.8638 24.8226 51.8638 26.72H53.8638ZM52.1908 21.5534C51.0411 20.3361 49.422 19.8 47.5037 19.8V21.8C49.0521 21.8 50.0731 22.2239 50.7367 22.9266L52.1908 21.5534ZM47.5037 19.8H40.1038V21.8H47.5037V19.8ZM40.1038 19.8C38.1837 19.8 36.5595 20.3367 35.3868 21.5429L36.8207 22.9371C37.5147 22.2233 38.5571 21.8 40.1038 21.8V19.8ZM35.3767 21.5534C34.2211 22.777 33.7438 24.5706 33.7438 26.72H35.7438C35.7438 24.8161 36.1731 23.623 36.8308 22.9266L35.3767 21.5534ZM33.7438 26.72C33.7438 28.8471 34.223 30.625 35.3767 31.8466L36.8308 30.4734C36.1711 29.775 35.7438 28.5929 35.7438 26.72H33.7438ZM35.3868 31.8571C36.5595 33.0633 38.1837 33.6 40.1038 33.6V31.6C38.5571 31.6 37.5147 31.1767 36.8207 30.4629L35.3868 31.8571ZM87.8334 37V38H88.8334V37H87.8334ZM82.0334 37H81.0334V38H82.0334V37ZM82.0334 8.4V7.4H81.0334V8.4H82.0334ZM87.8334 8.4H88.8334V7.4H87.8334V8.4ZM86.8334 37V38H87.8334V37H86.8334ZM64.6734 34.36L65.3341 33.6093L64.6734 34.36ZM64.6734 19.04L65.3341 19.7907L64.6734 19.04ZM86.4334 16.4H87.4334V15.4H86.4334V16.4ZM86.4334 21V22H87.4334V21H86.4334ZM69.0334 22.44L68.3164 21.7429L68.3162 21.7432L69.0334 22.44ZM69.0334 31L68.3064 31.6866L68.3162 31.697L68.3263 31.7071L69.0334 31ZM86.8334 32.4H87.8334V31.4H86.8334V32.4ZM87.8334 36H82.0334V38H87.8334V36ZM83.0334 37V8.4H81.0334V37H83.0334ZM82.0334 9.4H87.8334V7.4H82.0334V9.4ZM86.8334 8.4V37H88.8334V8.4H86.8334ZM86.8334 36H73.0334V38H86.8334V36ZM73.0334 36C69.6193 36 67.097 35.1607 65.3341 33.6093L64.0128 35.1107C66.2499 37.0793 69.3009 38 73.0334 38V36ZM65.3341 33.6093C63.6021 32.0851 62.6734 29.8438 62.6734 26.72H60.6734C60.6734 30.2629 61.7448 33.1149 64.0128 35.1107L65.3341 33.6093ZM62.6734 26.72C62.6734 23.5667 63.6038 21.3134 65.3341 19.7907L64.0128 18.2893C61.7431 20.2866 60.6734 23.1533 60.6734 26.72H62.6734ZM65.3341 19.7907C67.097 18.2393 69.6193 17.4 73.0334 17.4V15.4C69.3009 15.4 66.2499 16.3207 64.0128 18.2893L65.3341 19.7907ZM73.0334 17.4H86.4334V15.4H73.0334V17.4ZM85.4334 16.4V21H87.4334V16.4H85.4334ZM86.4334 20H73.0334V22H86.4334V20ZM73.0334 20C71.1134 20 69.4892 20.5367 68.3164 21.7429L69.7504 23.1371C70.4443 22.4233 71.4868 22 73.0334 22V20ZM68.3162 21.7432C67.1578 22.9357 66.6734 24.6623 66.6734 26.72H68.6734C68.6734 24.9377 69.0958 23.811 69.7507 23.1368L68.3162 21.7432ZM66.6734 26.72C66.6734 28.7582 67.161 30.4738 68.3064 31.6866L69.7605 30.3134C69.0925 29.6062 68.6734 28.4685 68.6734 26.72H66.6734ZM68.3263 31.7071C69.5005 32.8813 71.1212 33.4 73.0334 33.4V31.4C71.479 31.4 70.4331 30.9854 69.7405 30.2929L68.3263 31.7071ZM73.0334 33.4H86.8334V31.4H73.0334V33.4ZM85.8334 32.4V37H87.8334V32.4H85.8334ZM94.4391 34.56L93.7728 35.3058L93.7784 35.3107L94.4391 34.56ZM94.4391 18.88L95.0997 19.6307L95.1053 19.6258L94.4391 18.88ZM118.159 17.88L117.485 18.6185L117.493 18.6261L117.502 18.6336L118.159 17.88ZM97.6791 28.88V27.88H96.4281L96.7036 29.1003L97.6791 28.88ZM118.999 32.6H119.999V31.6H118.999V32.6ZM118.999 37.2V38.2H119.999V37.2H118.999ZM97.7191 24.28L96.7551 24.0141L96.4058 25.28H97.7191V24.28ZM113.759 23.8L113.052 23.0929L113.037 23.1083L113.022 23.1243L113.759 23.8ZM102.799 36.2C99.385 36.2 96.8626 35.3607 95.0997 33.8093L93.7784 35.3107C96.0155 37.2793 99.0665 38.2 102.799 38.2V36.2ZM95.1053 33.8142C93.3742 32.2678 92.4391 29.9611 92.4391 26.72H90.4391C90.4391 30.3589 91.5039 33.2788 93.7729 35.3058L95.1053 33.8142ZM92.4391 26.72C92.4391 23.4486 93.3761 21.1475 95.0997 19.6307L93.7784 18.1293C91.5021 20.1325 90.4391 23.058 90.4391 26.72H92.4391ZM95.1053 19.6258C96.8683 18.0508 99.3885 17.2 102.799 17.2V15.2C99.063 15.2 96.0098 16.1359 93.7729 18.1342L95.1053 19.6258ZM102.799 17.2H112.799V15.2H102.799V17.2ZM112.799 17.2C114.999 17.2 116.506 17.7251 117.485 18.6185L118.833 17.1415C117.358 15.7949 115.292 15.2 112.799 15.2V17.2ZM117.502 18.6336C118.487 19.4935 119.039 20.7621 119.039 22.6H121.039C121.039 20.3313 120.337 18.4532 118.816 17.1264L117.502 18.6336ZM119.039 22.6C119.039 24.4992 118.498 25.7527 117.574 26.5546C116.622 27.3801 115.09 27.88 112.799 27.88V29.88C115.334 29.88 117.423 29.3333 118.884 28.0654C120.373 26.774 121.039 24.8875 121.039 22.6H119.039ZM112.799 27.88H97.6791V29.88H112.799V27.88ZM96.7036 29.1003C97.0256 30.5261 97.703 31.6884 98.7913 32.479C99.8665 33.2602 101.235 33.6 102.799 33.6V31.6C101.51 31.6 100.598 31.3198 99.9669 30.861C99.3484 30.4116 98.8925 29.7139 98.6545 28.6597L96.7036 29.1003ZM102.799 33.6H118.999V31.6H102.799V33.6ZM117.999 32.6V37.2H119.999V32.6H117.999ZM118.999 36.2H102.799V38.2H118.999V36.2ZM102.799 19.8C101.291 19.8 99.9648 20.1183 98.9039 20.845C97.8298 21.5808 97.1265 22.6678 96.7551 24.0141L98.6831 24.5459C98.9517 23.5722 99.415 22.9192 100.034 22.495C100.667 22.0617 101.56 21.8 102.799 21.8V19.8ZM97.7191 25.28H112.519V23.28H97.7191V25.28ZM112.519 25.28C113.264 25.28 113.971 25.0483 114.496 24.4757L113.022 23.1243C112.96 23.1917 112.841 23.28 112.519 23.28V25.28ZM114.466 24.5071C115.016 23.9571 115.239 23.2385 115.239 22.48H113.239C113.239 22.8415 113.142 23.0029 113.052 23.0929L114.466 24.5071ZM115.239 22.48C115.239 21.7598 115.053 21.0374 114.508 20.5046C113.967 19.9761 113.241 19.8 112.519 19.8V21.8C112.944 21.8 113.078 21.9039 113.11 21.9354C113.138 21.9626 113.239 22.0802 113.239 22.48H115.239ZM112.519 19.8H102.799V21.8H112.519V19.8Z" fill="white"/>
<path d="M129.68 37C127.52 37 125.867 36.4533 124.72 35.36C123.573 34.2667 123 32.7067 123 30.68C123 28.68 123.573 27.1333 124.72 26.04C125.867 24.9467 127.52 24.4 129.68 24.4H145.04V23.44C145.04 21.8133 144.24 21 142.64 21H125.68V16.4H144.16C146.587 16.4 148.307 16.96 149.32 18.08C150.333 19.1733 150.84 20.72 150.84 22.72V37H129.68ZM130.72 32.4H145.04V29H130.72C130.213 29 129.813 29.16 129.52 29.48C129.253 29.7733 129.12 30.1733 129.12 30.68C129.12 31.1867 129.253 31.6 129.52 31.92C129.813 32.24 130.213 32.4 130.72 32.4ZM165.975 37C163.655 37 161.948 36.4267 160.855 35.28C159.761 34.1067 159.215 32.5733 159.215 30.68V21H153.255V16.4H159.215V10.08H165.015V16.4H173.575V21H165.015V29.96C165.015 31.5867 165.815 32.4 167.415 32.4H174.695V37H165.975ZM176.997 37.2V32.6H196.597C197.717 32.6 198.277 31.9733 198.277 30.72C198.277 29.4933 197.717 28.88 196.597 28.88H183.917C181.543 28.88 179.743 28.3467 178.517 27.28C177.29 26.1867 176.677 24.6267 176.677 22.6C176.677 20.5467 177.29 18.9733 178.517 17.88C179.77 16.76 181.57 16.2 183.917 16.2H202.157V20.8H184.197C183.05 20.8 182.477 21.36 182.477 22.48C182.477 23.04 182.637 23.48 182.957 23.8C183.277 24.12 183.69 24.28 184.197 24.28H197.637C199.717 24.28 201.303 24.8267 202.397 25.92C203.517 26.9867 204.077 28.5467 204.077 30.6C204.077 32.68 203.517 34.3067 202.397 35.48C201.277 36.6267 199.69 37.2 197.637 37.2H176.997Z" fill="white"/>
</svg>
